<mxfile host="app.diagrams.net" agent="Mozilla/5.0 (Macintosh; Intel Mac OS X 10_15_7) AppleWebKit/537.36 (KHTML, like Gecko) Chrome/130.0.0.0 Safari/537.36" version="24.8.3">
  <diagram name="第 1 页" id="xSwY8589drfaOPCu5hti">
    <mxGraphModel dx="1140" dy="638" grid="1" gridSize="10" guides="1" tooltips="1" connect="1" arrows="1" fold="1" page="1" pageScale="1" pageWidth="827" pageHeight="1169" math="0" shadow="0">
      <root>
        <mxCell id="0" />
        <mxCell id="1" parent="0" />
        <mxCell id="k_qER6fOcCXiL-DizDap-2" value="&lt;font face=&quot;Helvetica&quot; style=&quot;font-size: 50px;&quot;&gt;API性能提高100倍&lt;/font&gt;&lt;div style=&quot;font-size: 50px;&quot;&gt;&lt;div style=&quot;&quot;&gt;&lt;font face=&quot;_zcXrtlh5u2Q-dHwDHXc&quot; style=&quot;font-size: 50px;&quot;&gt;7种主要方法&lt;/font&gt;&lt;/div&gt;&lt;/div&gt;" style="text;html=1;align=center;verticalAlign=middle;resizable=0;points=[];autosize=1;strokeColor=none;fillColor=none;fontFamily=Architects Daughter;fontSource=https%3A%2F%2Ffonts.googleapis.com%2Fcss%3Ffamily%3DArchitects%2BDaughter;" vertex="1" parent="1">
          <mxGeometry x="180" y="55" width="440" height="140" as="geometry" />
        </mxCell>
        <mxCell id="k_qER6fOcCXiL-DizDap-3" value="&lt;font style=&quot;font-size: 26px;&quot;&gt;缓存&lt;/font&gt;" style="text;html=1;align=center;verticalAlign=middle;resizable=0;points=[];autosize=1;strokeColor=none;fillColor=none;fontFamily=Architects Daughter;fontSource=https%3A%2F%2Ffonts.googleapis.com%2Fcss%3Ffamily%3DArchitects%2BDaughter;sketch=1;curveFitting=1;jiggle=2;" vertex="1" parent="1">
          <mxGeometry x="80" y="240" width="80" height="40" as="geometry" />
        </mxCell>
        <mxCell id="k_qER6fOcCXiL-DizDap-5" value="" style="shape=link;html=1;rounded=0;hachureGap=4;fontFamily=Architects Daughter;fontSource=https%3A%2F%2Ffonts.googleapis.com%2Fcss%3Ffamily%3DArchitects%2BDaughter;flowAnimation=1;" edge="1" parent="1">
          <mxGeometry width="100" relative="1" as="geometry">
            <mxPoint x="180" y="260" as="sourcePoint" />
            <mxPoint x="280" y="260" as="targetPoint" />
          </mxGeometry>
        </mxCell>
        <mxCell id="k_qER6fOcCXiL-DizDap-28" value="" style="edgeStyle=orthogonalEdgeStyle;rounded=0;hachureGap=4;orthogonalLoop=1;jettySize=auto;html=1;fontFamily=Architects Daughter;fontSource=https%3A%2F%2Ffonts.googleapis.com%2Fcss%3Ffamily%3DArchitects%2BDaughter;flowAnimation=1;" edge="1" parent="1" source="k_qER6fOcCXiL-DizDap-12" target="k_qER6fOcCXiL-DizDap-25">
          <mxGeometry relative="1" as="geometry" />
        </mxCell>
        <mxCell id="k_qER6fOcCXiL-DizDap-12" value="" style="image;aspect=fixed;html=1;points=[];align=center;fontSize=12;image=img/lib/mscae/Cache_Redis_Product.svg;hachureGap=4;fontFamily=Architects Daughter;fontSource=https%3A%2F%2Ffonts.googleapis.com%2Fcss%3Ffamily%3DArchitects%2BDaughter;sketch=1;curveFitting=1;jiggle=2;" vertex="1" parent="1">
          <mxGeometry x="551.9" y="234" width="61.9" height="52" as="geometry" />
        </mxCell>
        <mxCell id="k_qER6fOcCXiL-DizDap-16" value="" style="edgeStyle=orthogonalEdgeStyle;rounded=0;hachureGap=4;orthogonalLoop=1;jettySize=auto;html=1;fontFamily=Architects Daughter;fontSource=https%3A%2F%2Ffonts.googleapis.com%2Fcss%3Ffamily%3DArchitects%2BDaughter;flowAnimation=1;" edge="1" parent="1" source="k_qER6fOcCXiL-DizDap-14" target="k_qER6fOcCXiL-DizDap-12">
          <mxGeometry relative="1" as="geometry" />
        </mxCell>
        <mxCell id="k_qER6fOcCXiL-DizDap-14" value="Actor" style="shape=umlActor;verticalLabelPosition=bottom;verticalAlign=top;html=1;outlineConnect=0;sketch=1;hachureGap=4;jiggle=2;curveFitting=1;fontFamily=Architects Daughter;fontSource=https%3A%2F%2Ffonts.googleapis.com%2Fcss%3Ffamily%3DArchitects%2BDaughter;" vertex="1" parent="1">
          <mxGeometry x="430" y="230" width="30" height="60" as="geometry" />
        </mxCell>
        <mxCell id="k_qER6fOcCXiL-DizDap-25" value="" style="strokeWidth=2;html=1;shape=mxgraph.flowchart.database;whiteSpace=wrap;sketch=1;hachureGap=4;jiggle=2;curveFitting=1;fontFamily=Architects Daughter;fontSource=https%3A%2F%2Ffonts.googleapis.com%2Fcss%3Ffamily%3DArchitects%2BDaughter;" vertex="1" parent="1">
          <mxGeometry x="680" y="230" width="60" height="60" as="geometry" />
        </mxCell>
        <mxCell id="k_qER6fOcCXiL-DizDap-29" value="&lt;span style=&quot;font-size: 26px;&quot;&gt;连接池&lt;/span&gt;" style="text;html=1;align=center;verticalAlign=middle;resizable=0;points=[];autosize=1;strokeColor=none;fillColor=none;fontFamily=Architects Daughter;fontSource=https%3A%2F%2Ffonts.googleapis.com%2Fcss%3Ffamily%3DArchitects%2BDaughter;sketch=1;curveFitting=1;jiggle=2;" vertex="1" parent="1">
          <mxGeometry x="80" y="380" width="100" height="40" as="geometry" />
        </mxCell>
        <mxCell id="k_qER6fOcCXiL-DizDap-30" value="" style="shape=link;html=1;rounded=0;hachureGap=4;fontFamily=Architects Daughter;fontSource=https%3A%2F%2Ffonts.googleapis.com%2Fcss%3Ffamily%3DArchitects%2BDaughter;flowAnimation=1;width=8.571428571428573;" edge="1" parent="1">
          <mxGeometry width="100" relative="1" as="geometry">
            <mxPoint x="210" y="399.33000000000004" as="sourcePoint" />
            <mxPoint x="310" y="399.33000000000004" as="targetPoint" />
          </mxGeometry>
        </mxCell>
        <mxCell id="k_qER6fOcCXiL-DizDap-31" value="Caching" style="text;html=1;align=center;verticalAlign=middle;resizable=0;points=[];autosize=1;strokeColor=none;fillColor=none;fontFamily=Architects Daughter;fontSource=https%3A%2F%2Ffonts.googleapis.com%2Fcss%3Ffamily%3DArchitects%2BDaughter;" vertex="1" parent="1">
          <mxGeometry x="551.9" y="195" width="70" height="30" as="geometry" />
        </mxCell>
        <mxCell id="k_qER6fOcCXiL-DizDap-32" value="" style="endArrow=classic;startArrow=classic;html=1;rounded=0;hachureGap=4;fontFamily=Architects Daughter;fontSource=https%3A%2F%2Ffonts.googleapis.com%2Fcss%3Ffamily%3DArchitects%2BDaughter;flowAnimation=1;entryX=0.5;entryY=1;entryDx=0;entryDy=0;entryPerimeter=0;exitX=0.461;exitY=0.885;exitDx=0;exitDy=0;exitPerimeter=0;" edge="1" parent="1" source="k_qER6fOcCXiL-DizDap-12" target="k_qER6fOcCXiL-DizDap-25">
          <mxGeometry width="50" height="50" relative="1" as="geometry">
            <mxPoint x="580" y="290" as="sourcePoint" />
            <mxPoint x="710" y="300" as="targetPoint" />
            <Array as="points">
              <mxPoint x="650" y="320" />
            </Array>
          </mxGeometry>
        </mxCell>
        <mxCell id="k_qER6fOcCXiL-DizDap-38" value="" style="rounded=0;hachureGap=4;orthogonalLoop=1;jettySize=auto;html=1;fontFamily=Architects Daughter;fontSource=https%3A%2F%2Ffonts.googleapis.com%2Fcss%3Ffamily%3DArchitects%2BDaughter;flowAnimation=1;" edge="1" parent="1" source="k_qER6fOcCXiL-DizDap-33" target="k_qER6fOcCXiL-DizDap-36">
          <mxGeometry relative="1" as="geometry" />
        </mxCell>
        <mxCell id="k_qER6fOcCXiL-DizDap-33" value="" style="rounded=1;whiteSpace=wrap;html=1;sketch=1;hachureGap=4;jiggle=2;curveFitting=1;fontFamily=Architects Daughter;fontSource=https%3A%2F%2Ffonts.googleapis.com%2Fcss%3Ffamily%3DArchitects%2BDaughter;" vertex="1" parent="1">
          <mxGeometry x="420" y="360" width="50" height="20" as="geometry" />
        </mxCell>
        <mxCell id="k_qER6fOcCXiL-DizDap-39" value="" style="edgeStyle=orthogonalEdgeStyle;rounded=0;hachureGap=4;orthogonalLoop=1;jettySize=auto;html=1;fontFamily=Architects Daughter;fontSource=https%3A%2F%2Ffonts.googleapis.com%2Fcss%3Ffamily%3DArchitects%2BDaughter;flowAnimation=1;" edge="1" parent="1" source="k_qER6fOcCXiL-DizDap-34" target="k_qER6fOcCXiL-DizDap-36">
          <mxGeometry relative="1" as="geometry" />
        </mxCell>
        <mxCell id="k_qER6fOcCXiL-DizDap-34" value="" style="rounded=1;whiteSpace=wrap;html=1;sketch=1;hachureGap=4;jiggle=2;curveFitting=1;fontFamily=Architects Daughter;fontSource=https%3A%2F%2Ffonts.googleapis.com%2Fcss%3Ffamily%3DArchitects%2BDaughter;" vertex="1" parent="1">
          <mxGeometry x="420" y="390" width="50" height="20" as="geometry" />
        </mxCell>
        <mxCell id="k_qER6fOcCXiL-DizDap-40" value="" style="rounded=0;hachureGap=4;orthogonalLoop=1;jettySize=auto;html=1;fontFamily=Architects Daughter;fontSource=https%3A%2F%2Ffonts.googleapis.com%2Fcss%3Ffamily%3DArchitects%2BDaughter;flowAnimation=1;" edge="1" parent="1" source="k_qER6fOcCXiL-DizDap-35" target="k_qER6fOcCXiL-DizDap-36">
          <mxGeometry relative="1" as="geometry" />
        </mxCell>
        <mxCell id="k_qER6fOcCXiL-DizDap-35" value="" style="rounded=1;whiteSpace=wrap;html=1;sketch=1;hachureGap=4;jiggle=2;curveFitting=1;fontFamily=Architects Daughter;fontSource=https%3A%2F%2Ffonts.googleapis.com%2Fcss%3Ffamily%3DArchitects%2BDaughter;" vertex="1" parent="1">
          <mxGeometry x="420" y="420" width="50" height="20" as="geometry" />
        </mxCell>
        <mxCell id="k_qER6fOcCXiL-DizDap-41" value="" style="edgeStyle=orthogonalEdgeStyle;rounded=0;hachureGap=4;orthogonalLoop=1;jettySize=auto;html=1;fontFamily=Architects Daughter;fontSource=https%3A%2F%2Ffonts.googleapis.com%2Fcss%3Ffamily%3DArchitects%2BDaughter;flowAnimation=1;" edge="1" parent="1" source="k_qER6fOcCXiL-DizDap-36" target="k_qER6fOcCXiL-DizDap-37">
          <mxGeometry relative="1" as="geometry" />
        </mxCell>
        <mxCell id="k_qER6fOcCXiL-DizDap-36" value="Connection Pool" style="ellipse;whiteSpace=wrap;html=1;sketch=1;hachureGap=4;jiggle=2;curveFitting=1;fontFamily=Architects Daughter;fontSource=https%3A%2F%2Ffonts.googleapis.com%2Fcss%3Ffamily%3DArchitects%2BDaughter;" vertex="1" parent="1">
          <mxGeometry x="520" y="370" width="120" height="60" as="geometry" />
        </mxCell>
        <mxCell id="k_qER6fOcCXiL-DizDap-37" value="" style="strokeWidth=2;html=1;shape=mxgraph.flowchart.database;whiteSpace=wrap;sketch=1;hachureGap=4;jiggle=2;curveFitting=1;fontFamily=Architects Daughter;fontSource=https%3A%2F%2Ffonts.googleapis.com%2Fcss%3Ffamily%3DArchitects%2BDaughter;" vertex="1" parent="1">
          <mxGeometry x="690" y="370" width="60" height="60" as="geometry" />
        </mxCell>
        <mxCell id="k_qER6fOcCXiL-DizDap-42" value="&lt;span style=&quot;text-wrap-mode: wrap;&quot;&gt;Connection Pool&lt;/span&gt;" style="text;html=1;align=center;verticalAlign=middle;resizable=0;points=[];autosize=1;strokeColor=none;fillColor=none;fontFamily=Architects Daughter;fontSource=https%3A%2F%2Ffonts.googleapis.com%2Fcss%3Ffamily%3DArchitects%2BDaughter;" vertex="1" parent="1">
          <mxGeometry x="527.85" y="330" width="110" height="30" as="geometry" />
        </mxCell>
        <mxCell id="k_qER6fOcCXiL-DizDap-43" value="&lt;span style=&quot;font-size: 26px;&quot;&gt;避免N+1问题&lt;/span&gt;" style="text;html=1;align=center;verticalAlign=middle;resizable=0;points=[];autosize=1;strokeColor=none;fillColor=none;fontFamily=Architects Daughter;fontSource=https%3A%2F%2Ffonts.googleapis.com%2Fcss%3Ffamily%3DArchitects%2BDaughter;sketch=1;curveFitting=1;jiggle=2;" vertex="1" parent="1">
          <mxGeometry x="80" y="520" width="160" height="40" as="geometry" />
        </mxCell>
        <mxCell id="k_qER6fOcCXiL-DizDap-44" value="" style="shape=link;html=1;rounded=0;hachureGap=4;fontFamily=Architects Daughter;fontSource=https%3A%2F%2Ffonts.googleapis.com%2Fcss%3Ffamily%3DArchitects%2BDaughter;flowAnimation=1;width=8.571428571428573;" edge="1" parent="1">
          <mxGeometry width="100" relative="1" as="geometry">
            <mxPoint x="260" y="539.33" as="sourcePoint" />
            <mxPoint x="360" y="539.33" as="targetPoint" />
          </mxGeometry>
        </mxCell>
        <mxCell id="k_qER6fOcCXiL-DizDap-45" value="" style="rounded=1;whiteSpace=wrap;html=1;sketch=1;hachureGap=4;jiggle=2;curveFitting=1;fontFamily=Architects Daughter;fontSource=https%3A%2F%2Ffonts.googleapis.com%2Fcss%3Ffamily%3DArchitects%2BDaughter;" vertex="1" parent="1">
          <mxGeometry x="420" y="490" width="50" height="20" as="geometry" />
        </mxCell>
        <mxCell id="k_qER6fOcCXiL-DizDap-46" value="" style="rounded=1;whiteSpace=wrap;html=1;sketch=1;hachureGap=4;jiggle=2;curveFitting=1;fontFamily=Architects Daughter;fontSource=https%3A%2F%2Ffonts.googleapis.com%2Fcss%3Ffamily%3DArchitects%2BDaughter;" vertex="1" parent="1">
          <mxGeometry x="420" y="520" width="50" height="20" as="geometry" />
        </mxCell>
        <mxCell id="k_qER6fOcCXiL-DizDap-47" value="" style="rounded=1;whiteSpace=wrap;html=1;sketch=1;hachureGap=4;jiggle=2;curveFitting=1;fontFamily=Architects Daughter;fontSource=https%3A%2F%2Ffonts.googleapis.com%2Fcss%3Ffamily%3DArchitects%2BDaughter;" vertex="1" parent="1">
          <mxGeometry x="420" y="560" width="50" height="20" as="geometry" />
        </mxCell>
        <mxCell id="k_qER6fOcCXiL-DizDap-48" value="" style="rounded=1;whiteSpace=wrap;html=1;sketch=1;hachureGap=4;jiggle=2;curveFitting=1;fontFamily=Architects Daughter;fontSource=https%3A%2F%2Ffonts.googleapis.com%2Fcss%3Ffamily%3DArchitects%2BDaughter;" vertex="1" parent="1">
          <mxGeometry x="420" y="590" width="50" height="20" as="geometry" />
        </mxCell>
        <mxCell id="k_qER6fOcCXiL-DizDap-49" value="" style="strokeWidth=2;html=1;shape=mxgraph.flowchart.database;whiteSpace=wrap;sketch=1;hachureGap=4;jiggle=2;curveFitting=1;fontFamily=Architects Daughter;fontSource=https%3A%2F%2Ffonts.googleapis.com%2Fcss%3Ffamily%3DArchitects%2BDaughter;" vertex="1" parent="1">
          <mxGeometry x="690" y="520" width="60" height="60" as="geometry" />
        </mxCell>
        <mxCell id="k_qER6fOcCXiL-DizDap-53" style="rounded=0;hachureGap=4;orthogonalLoop=1;jettySize=auto;html=1;exitX=1;exitY=0.5;exitDx=0;exitDy=0;entryX=0;entryY=0.15;entryDx=0;entryDy=0;entryPerimeter=0;fontFamily=Architects Daughter;fontSource=https%3A%2F%2Ffonts.googleapis.com%2Fcss%3Ffamily%3DArchitects%2BDaughter;flowAnimation=1;" edge="1" parent="1" source="k_qER6fOcCXiL-DizDap-45" target="k_qER6fOcCXiL-DizDap-49">
          <mxGeometry relative="1" as="geometry" />
        </mxCell>
        <mxCell id="k_qER6fOcCXiL-DizDap-54" style="rounded=0;hachureGap=4;orthogonalLoop=1;jettySize=auto;html=1;exitX=1;exitY=0.5;exitDx=0;exitDy=0;entryX=0.053;entryY=0.387;entryDx=0;entryDy=0;entryPerimeter=0;fontFamily=Architects Daughter;fontSource=https%3A%2F%2Ffonts.googleapis.com%2Fcss%3Ffamily%3DArchitects%2BDaughter;flowAnimation=1;" edge="1" parent="1" source="k_qER6fOcCXiL-DizDap-46" target="k_qER6fOcCXiL-DizDap-49">
          <mxGeometry relative="1" as="geometry" />
        </mxCell>
        <mxCell id="k_qER6fOcCXiL-DizDap-55" style="rounded=0;hachureGap=4;orthogonalLoop=1;jettySize=auto;html=1;exitX=1;exitY=0.5;exitDx=0;exitDy=0;entryX=-0.012;entryY=0.602;entryDx=0;entryDy=0;entryPerimeter=0;fontFamily=Architects Daughter;fontSource=https%3A%2F%2Ffonts.googleapis.com%2Fcss%3Ffamily%3DArchitects%2BDaughter;flowAnimation=1;" edge="1" parent="1" source="k_qER6fOcCXiL-DizDap-47" target="k_qER6fOcCXiL-DizDap-49">
          <mxGeometry relative="1" as="geometry" />
        </mxCell>
        <mxCell id="k_qER6fOcCXiL-DizDap-56" style="rounded=0;hachureGap=4;orthogonalLoop=1;jettySize=auto;html=1;exitX=1;exitY=0.5;exitDx=0;exitDy=0;entryX=0;entryY=0.85;entryDx=0;entryDy=0;entryPerimeter=0;fontFamily=Architects Daughter;fontSource=https%3A%2F%2Ffonts.googleapis.com%2Fcss%3Ffamily%3DArchitects%2BDaughter;flowAnimation=1;" edge="1" parent="1" source="k_qER6fOcCXiL-DizDap-48" target="k_qER6fOcCXiL-DizDap-49">
          <mxGeometry relative="1" as="geometry" />
        </mxCell>
        <mxCell id="k_qER6fOcCXiL-DizDap-57" value="&lt;span style=&quot;font-size: 26px;&quot;&gt;分页&lt;/span&gt;" style="text;html=1;align=center;verticalAlign=middle;resizable=0;points=[];autosize=1;strokeColor=none;fillColor=none;fontFamily=Architects Daughter;fontSource=https%3A%2F%2Ffonts.googleapis.com%2Fcss%3Ffamily%3DArchitects%2BDaughter;sketch=1;curveFitting=1;jiggle=2;" vertex="1" parent="1">
          <mxGeometry x="80" y="690" width="80" height="40" as="geometry" />
        </mxCell>
        <mxCell id="k_qER6fOcCXiL-DizDap-58" value="" style="shape=link;html=1;rounded=0;hachureGap=4;fontFamily=Architects Daughter;fontSource=https%3A%2F%2Ffonts.googleapis.com%2Fcss%3Ffamily%3DArchitects%2BDaughter;flowAnimation=1;width=8.571428571428573;" edge="1" parent="1">
          <mxGeometry width="100" relative="1" as="geometry">
            <mxPoint x="180" y="709.44" as="sourcePoint" />
            <mxPoint x="280" y="709.44" as="targetPoint" />
          </mxGeometry>
        </mxCell>
        <mxCell id="k_qER6fOcCXiL-DizDap-62" style="edgeStyle=orthogonalEdgeStyle;rounded=0;hachureGap=4;orthogonalLoop=1;jettySize=auto;html=1;exitX=1;exitY=0.3333333333333333;exitDx=0;exitDy=0;exitPerimeter=0;entryX=0;entryY=0;entryDx=0;entryDy=0;fontFamily=Architects Daughter;fontSource=https%3A%2F%2Ffonts.googleapis.com%2Fcss%3Ffamily%3DArchitects%2BDaughter;flowAnimation=1;curved=1;" edge="1" parent="1" source="k_qER6fOcCXiL-DizDap-59" target="k_qER6fOcCXiL-DizDap-61">
          <mxGeometry relative="1" as="geometry">
            <Array as="points">
              <mxPoint x="440" y="680" />
              <mxPoint x="450" y="680" />
              <mxPoint x="450" y="670" />
            </Array>
          </mxGeometry>
        </mxCell>
        <mxCell id="k_qER6fOcCXiL-DizDap-59" value="Actor" style="shape=umlActor;verticalLabelPosition=bottom;verticalAlign=top;html=1;outlineConnect=0;sketch=1;hachureGap=4;jiggle=2;curveFitting=1;fontFamily=Architects Daughter;fontSource=https%3A%2F%2Ffonts.googleapis.com%2Fcss%3Ffamily%3DArchitects%2BDaughter;" vertex="1" parent="1">
          <mxGeometry x="420" y="680" width="20" height="30" as="geometry" />
        </mxCell>
        <mxCell id="k_qER6fOcCXiL-DizDap-61" value="Server contents" style="points=[[0,0],[0.25,0],[0.5,0],[0.75,0],[1,0],[1,0.25],[1,0.5],[1,0.75],[1,1],[0.75,1],[0.5,1],[0.25,1],[0,1],[0,0.75],[0,0.5],[0,0.25]];outlineConnect=0;gradientColor=none;html=1;whiteSpace=wrap;fontSize=12;fontStyle=0;container=1;pointerEvents=0;collapsible=0;recursiveResize=0;shape=mxgraph.aws4.group;grIcon=mxgraph.aws4.group_on_premise;strokeColor=#7D8998;fillColor=none;verticalAlign=top;align=left;spacingLeft=30;fontColor=#5A6C86;dashed=0;sketch=1;hachureGap=4;jiggle=2;curveFitting=1;fontFamily=Architects Daughter;fontSource=https%3A%2F%2Ffonts.googleapis.com%2Fcss%3Ffamily%3DArchitects%2BDaughter;" vertex="1" parent="1">
          <mxGeometry x="680" y="670" width="80" height="60" as="geometry" />
        </mxCell>
        <mxCell id="k_qER6fOcCXiL-DizDap-63" style="rounded=0;hachureGap=4;orthogonalLoop=1;jettySize=auto;html=1;exitX=0;exitY=1;exitDx=0;exitDy=0;entryX=1;entryY=1;entryDx=0;entryDy=0;entryPerimeter=0;fontFamily=Architects Daughter;fontSource=https%3A%2F%2Ffonts.googleapis.com%2Fcss%3Ffamily%3DArchitects%2BDaughter;flowAnimation=1;edgeStyle=entityRelationEdgeStyle;" edge="1" parent="1" source="k_qER6fOcCXiL-DizDap-61" target="k_qER6fOcCXiL-DizDap-59">
          <mxGeometry relative="1" as="geometry" />
        </mxCell>
        <mxCell id="k_qER6fOcCXiL-DizDap-65" value="" style="rounded=1;whiteSpace=wrap;html=1;sketch=1;hachureGap=4;jiggle=2;curveFitting=1;fontFamily=Architects Daughter;fontSource=https%3A%2F%2Ffonts.googleapis.com%2Fcss%3Ffamily%3DArchitects%2BDaughter;" vertex="1" parent="1">
          <mxGeometry x="440" y="740" width="20" height="30" as="geometry" />
        </mxCell>
        <mxCell id="k_qER6fOcCXiL-DizDap-66" value="" style="rounded=1;whiteSpace=wrap;html=1;sketch=1;hachureGap=4;jiggle=2;curveFitting=1;fontFamily=Architects Daughter;fontSource=https%3A%2F%2Ffonts.googleapis.com%2Fcss%3Ffamily%3DArchitects%2BDaughter;" vertex="1" parent="1">
          <mxGeometry x="440" y="780" width="20" height="30" as="geometry" />
        </mxCell>
        <mxCell id="k_qER6fOcCXiL-DizDap-67" value="" style="rounded=1;whiteSpace=wrap;html=1;sketch=1;hachureGap=4;jiggle=2;curveFitting=1;fontFamily=Architects Daughter;fontSource=https%3A%2F%2Ffonts.googleapis.com%2Fcss%3Ffamily%3DArchitects%2BDaughter;arcSize=50;" vertex="1" parent="1">
          <mxGeometry x="440" y="820" width="20" height="30" as="geometry" />
        </mxCell>
        <mxCell id="k_qER6fOcCXiL-DizDap-68" value="page1" style="text;html=1;align=center;verticalAlign=middle;resizable=0;points=[];autosize=1;strokeColor=none;fillColor=none;fontFamily=Architects Daughter;fontSource=https%3A%2F%2Ffonts.googleapis.com%2Fcss%3Ffamily%3DArchitects%2BDaughter;" vertex="1" parent="1">
          <mxGeometry x="395" y="738" width="50" height="30" as="geometry" />
        </mxCell>
        <mxCell id="k_qER6fOcCXiL-DizDap-69" value="page2" style="text;html=1;align=center;verticalAlign=middle;resizable=0;points=[];autosize=1;strokeColor=none;fillColor=none;fontFamily=Architects Daughter;fontSource=https%3A%2F%2Ffonts.googleapis.com%2Fcss%3Ffamily%3DArchitects%2BDaughter;" vertex="1" parent="1">
          <mxGeometry x="390" y="780" width="60" height="30" as="geometry" />
        </mxCell>
        <mxCell id="k_qER6fOcCXiL-DizDap-70" value="page3" style="text;html=1;align=center;verticalAlign=middle;resizable=0;points=[];autosize=1;strokeColor=none;fillColor=none;fontFamily=Architects Daughter;fontSource=https%3A%2F%2Ffonts.googleapis.com%2Fcss%3Ffamily%3DArchitects%2BDaughter;" vertex="1" parent="1">
          <mxGeometry x="390" y="820" width="60" height="30" as="geometry" />
        </mxCell>
        <mxCell id="k_qER6fOcCXiL-DizDap-74" style="rounded=0;hachureGap=4;orthogonalLoop=1;jettySize=auto;html=1;exitX=0.5;exitY=1;exitDx=0;exitDy=0;entryX=1;entryY=0.5;entryDx=0;entryDy=0;fontFamily=Architects Daughter;fontSource=https%3A%2F%2Ffonts.googleapis.com%2Fcss%3Ffamily%3DArchitects%2BDaughter;flowAnimation=1;" edge="1" parent="1" source="k_qER6fOcCXiL-DizDap-71" target="k_qER6fOcCXiL-DizDap-65">
          <mxGeometry relative="1" as="geometry" />
        </mxCell>
        <mxCell id="k_qER6fOcCXiL-DizDap-71" value="" style="rounded=1;whiteSpace=wrap;html=1;sketch=1;hachureGap=4;jiggle=2;curveFitting=1;fontFamily=Architects Daughter;fontSource=https%3A%2F%2Ffonts.googleapis.com%2Fcss%3Ffamily%3DArchitects%2BDaughter;" vertex="1" parent="1">
          <mxGeometry x="680" y="740" width="20" height="30" as="geometry" />
        </mxCell>
        <mxCell id="k_qER6fOcCXiL-DizDap-75" style="edgeStyle=orthogonalEdgeStyle;rounded=0;hachureGap=4;orthogonalLoop=1;jettySize=auto;html=1;exitX=0.5;exitY=1;exitDx=0;exitDy=0;entryX=1;entryY=0.5;entryDx=0;entryDy=0;fontFamily=Architects Daughter;fontSource=https%3A%2F%2Ffonts.googleapis.com%2Fcss%3Ffamily%3DArchitects%2BDaughter;flowAnimation=1;" edge="1" parent="1" source="k_qER6fOcCXiL-DizDap-72" target="k_qER6fOcCXiL-DizDap-66">
          <mxGeometry relative="1" as="geometry" />
        </mxCell>
        <mxCell id="k_qER6fOcCXiL-DizDap-72" value="" style="rounded=1;whiteSpace=wrap;html=1;sketch=1;hachureGap=4;jiggle=2;curveFitting=1;fontFamily=Architects Daughter;fontSource=https%3A%2F%2Ffonts.googleapis.com%2Fcss%3Ffamily%3DArchitects%2BDaughter;" vertex="1" parent="1">
          <mxGeometry x="710" y="740" width="20" height="30" as="geometry" />
        </mxCell>
        <mxCell id="k_qER6fOcCXiL-DizDap-76" style="edgeStyle=orthogonalEdgeStyle;rounded=0;hachureGap=4;orthogonalLoop=1;jettySize=auto;html=1;exitX=0.5;exitY=1;exitDx=0;exitDy=0;entryX=1;entryY=0.5;entryDx=0;entryDy=0;fontFamily=Architects Daughter;fontSource=https%3A%2F%2Ffonts.googleapis.com%2Fcss%3Ffamily%3DArchitects%2BDaughter;flowAnimation=1;" edge="1" parent="1" source="k_qER6fOcCXiL-DizDap-73" target="k_qER6fOcCXiL-DizDap-67">
          <mxGeometry relative="1" as="geometry" />
        </mxCell>
        <mxCell id="k_qER6fOcCXiL-DizDap-73" value="" style="rounded=1;whiteSpace=wrap;html=1;sketch=1;hachureGap=4;jiggle=2;curveFitting=1;fontFamily=Architects Daughter;fontSource=https%3A%2F%2Ffonts.googleapis.com%2Fcss%3Ffamily%3DArchitects%2BDaughter;" vertex="1" parent="1">
          <mxGeometry x="740" y="740" width="20" height="30" as="geometry" />
        </mxCell>
        <mxCell id="k_qER6fOcCXiL-DizDap-77" value="result" style="text;html=1;align=center;verticalAlign=middle;resizable=0;points=[];autosize=1;strokeColor=none;fillColor=none;fontFamily=Architects Daughter;fontSource=https%3A%2F%2Ffonts.googleapis.com%2Fcss%3Ffamily%3DArchitects%2BDaughter;" vertex="1" parent="1">
          <mxGeometry x="750" y="740" width="60" height="30" as="geometry" />
        </mxCell>
        <mxCell id="k_qER6fOcCXiL-DizDap-78" value="&lt;span style=&quot;font-size: 26px;&quot;&gt;JSOn序列化&lt;/span&gt;" style="text;html=1;align=center;verticalAlign=middle;resizable=0;points=[];autosize=1;strokeColor=none;fillColor=none;fontFamily=Architects Daughter;fontSource=https%3A%2F%2Ffonts.googleapis.com%2Fcss%3Ffamily%3DArchitects%2BDaughter;sketch=1;curveFitting=1;jiggle=2;" vertex="1" parent="1">
          <mxGeometry x="80" y="920" width="160" height="40" as="geometry" />
        </mxCell>
        <mxCell id="k_qER6fOcCXiL-DizDap-79" value="" style="shape=link;html=1;rounded=0;hachureGap=4;fontFamily=Architects Daughter;fontSource=https%3A%2F%2Ffonts.googleapis.com%2Fcss%3Ffamily%3DArchitects%2BDaughter;flowAnimation=1;width=8.571428571428573;" edge="1" parent="1">
          <mxGeometry width="100" relative="1" as="geometry">
            <mxPoint x="270" y="939.44" as="sourcePoint" />
            <mxPoint x="370" y="939.44" as="targetPoint" />
          </mxGeometry>
        </mxCell>
        <mxCell id="k_qER6fOcCXiL-DizDap-81" value="" style="shape=image;html=1;verticalAlign=top;verticalLabelPosition=bottom;labelBackgroundColor=#ffffff;imageAspect=0;aspect=fixed;image=https://cdn2.iconfinder.com/data/icons/boxicons-solid-vol-2/24/bxs-file-json-128.png;sketch=1;hachureGap=4;jiggle=2;curveFitting=1;fontFamily=Architects Daughter;fontSource=https%3A%2F%2Ffonts.googleapis.com%2Fcss%3Ffamily%3DArchitects%2BDaughter;" vertex="1" parent="1">
          <mxGeometry x="640" y="885" width="110" height="110" as="geometry" />
        </mxCell>
        <mxCell id="k_qER6fOcCXiL-DizDap-85" style="edgeStyle=orthogonalEdgeStyle;rounded=0;hachureGap=4;orthogonalLoop=1;jettySize=auto;html=1;exitX=1;exitY=0.5;exitDx=0;exitDy=0;entryX=0;entryY=0.25;entryDx=0;entryDy=0;fontFamily=Architects Daughter;fontSource=https%3A%2F%2Ffonts.googleapis.com%2Fcss%3Ffamily%3DArchitects%2BDaughter;flowAnimation=1;" edge="1" parent="1" source="k_qER6fOcCXiL-DizDap-82" target="k_qER6fOcCXiL-DizDap-81">
          <mxGeometry relative="1" as="geometry" />
        </mxCell>
        <mxCell id="k_qER6fOcCXiL-DizDap-82" value="" style="rounded=1;whiteSpace=wrap;html=1;sketch=1;hachureGap=4;jiggle=2;curveFitting=1;fontFamily=Architects Daughter;fontSource=https%3A%2F%2Ffonts.googleapis.com%2Fcss%3Ffamily%3DArchitects%2BDaughter;" vertex="1" parent="1">
          <mxGeometry x="420" y="905" width="50" height="20" as="geometry" />
        </mxCell>
        <mxCell id="k_qER6fOcCXiL-DizDap-86" style="edgeStyle=orthogonalEdgeStyle;rounded=0;hachureGap=4;orthogonalLoop=1;jettySize=auto;html=1;exitX=1;exitY=0.5;exitDx=0;exitDy=0;entryX=0;entryY=0.5;entryDx=0;entryDy=0;fontFamily=Architects Daughter;fontSource=https%3A%2F%2Ffonts.googleapis.com%2Fcss%3Ffamily%3DArchitects%2BDaughter;flowAnimation=1;" edge="1" parent="1" source="k_qER6fOcCXiL-DizDap-83" target="k_qER6fOcCXiL-DizDap-81">
          <mxGeometry relative="1" as="geometry" />
        </mxCell>
        <mxCell id="k_qER6fOcCXiL-DizDap-83" value="" style="rounded=1;whiteSpace=wrap;html=1;sketch=1;hachureGap=4;jiggle=2;curveFitting=1;fontFamily=Architects Daughter;fontSource=https%3A%2F%2Ffonts.googleapis.com%2Fcss%3Ffamily%3DArchitects%2BDaughter;" vertex="1" parent="1">
          <mxGeometry x="420" y="930" width="50" height="20" as="geometry" />
        </mxCell>
        <mxCell id="k_qER6fOcCXiL-DizDap-87" style="edgeStyle=orthogonalEdgeStyle;rounded=0;hachureGap=4;orthogonalLoop=1;jettySize=auto;html=1;exitX=1;exitY=0.5;exitDx=0;exitDy=0;entryX=0;entryY=0.75;entryDx=0;entryDy=0;fontFamily=Architects Daughter;fontSource=https%3A%2F%2Ffonts.googleapis.com%2Fcss%3Ffamily%3DArchitects%2BDaughter;flowAnimation=1;" edge="1" parent="1" source="k_qER6fOcCXiL-DizDap-84" target="k_qER6fOcCXiL-DizDap-81">
          <mxGeometry relative="1" as="geometry" />
        </mxCell>
        <mxCell id="k_qER6fOcCXiL-DizDap-84" value="" style="rounded=1;whiteSpace=wrap;html=1;sketch=1;hachureGap=4;jiggle=2;curveFitting=1;fontFamily=Architects Daughter;fontSource=https%3A%2F%2Ffonts.googleapis.com%2Fcss%3Ffamily%3DArchitects%2BDaughter;" vertex="1" parent="1">
          <mxGeometry x="420" y="960" width="50" height="20" as="geometry" />
        </mxCell>
        <mxCell id="k_qER6fOcCXiL-DizDap-88" value="&lt;span style=&quot;font-size: 26px;&quot;&gt;负载压缩&lt;/span&gt;" style="text;html=1;align=center;verticalAlign=middle;resizable=0;points=[];autosize=1;strokeColor=none;fillColor=none;fontFamily=Architects Daughter;fontSource=https%3A%2F%2Ffonts.googleapis.com%2Fcss%3Ffamily%3DArchitects%2BDaughter;sketch=1;curveFitting=1;jiggle=2;" vertex="1" parent="1">
          <mxGeometry x="80" y="1030" width="130" height="40" as="geometry" />
        </mxCell>
        <mxCell id="k_qER6fOcCXiL-DizDap-89" value="" style="shape=link;html=1;rounded=0;hachureGap=4;fontFamily=Architects Daughter;fontSource=https%3A%2F%2Ffonts.googleapis.com%2Fcss%3Ffamily%3DArchitects%2BDaughter;flowAnimation=1;width=8.571428571428573;" edge="1" parent="1">
          <mxGeometry width="100" relative="1" as="geometry">
            <mxPoint x="240" y="1049.44" as="sourcePoint" />
            <mxPoint x="340" y="1049.44" as="targetPoint" />
          </mxGeometry>
        </mxCell>
      </root>
    </mxGraphModel>
  </diagram>
</mxfile>
